<?xml version="1.0" encoding="UTF-8"?>
<svg width="34px" height="34px" viewBox="0 0 34 34" version="1.1" xmlns="http://www.w3.org/2000/svg" xmlns:xlink="http://www.w3.org/1999/xlink">
    <!-- Generator: Sketch 59 (86127) - https://sketch.com -->
    <title>未上榜印章备份</title>
    <desc>Created with Sketch.</desc>
    <g id="舞台" stroke="none" stroke-width="1" fill="none" fill-rule="evenodd">
        <g id="未上榜印章备份" transform="translate(-5.000000, -5.000000)" fill="#D78405">
            <g id="印章" transform="translate(22.000000, 22.000000) rotate(20.000000) translate(-22.000000, -22.000000) translate(5.000000, 5.000000)" fill-rule="nonzero">
                <path d="M12.303261,2.44576035 C12.2705648,2.61507785 12.1561281,2.78439534 12.0743875,2.93678109 C10.7011465,3.37700657 9.34425355,4.05427655 7.9546644,5.05324977 C6.59777147,6.05222299 5.28992286,7.42369469 4.37442884,8.77823465 C3.4425867,10.1497064 2.80501051,11.5381098 2.37995971,12.943445 C2.1510862,13.6376467 2.00395323,14.3487802 1.87316837,15.0429819 C1.82412405,15.3985487 1.75873162,15.7371837 1.74238351,16.0927504 C1.67699108,16.4313854 1.72603541,16.7869521 1.62794676,17.1425189 C1.4971619,17.2102459 1.43176947,17.2949046 1.30098461,17.3626316 C1.30098461,17.4472904 1.48081379,17.5827444 1.31733272,17.6335396 C1.23559218,17.5827444 1.2846365,17.3964951 1.2846365,17.2779729 C1.2846365,17.1425189 1.26828839,16.9901331 1.31733272,16.8885426 C1.38272515,16.9054744 1.2846365,16.9732014 1.35002893,17.0070649 C1.38272515,16.9901331 1.44811758,16.9054744 1.48081379,16.8546791 C1.46446568,16.8038839 1.36637704,16.7530886 1.30098461,16.7022934 C1.30098461,16.6345664 1.2846365,16.5499077 1.35002893,16.4652489 C1.33368082,16.4483172 1.2846365,16.4313854 1.30098461,16.3805902 C1.61159865,13.1127625 2.69057375,9.76027612 5.60053691,6.62790247 C6.56507526,5.578134 7.56230982,4.79927353 8.5922406,4.1389353 C9.09903193,3.81723206 9.60582327,3.52939232 10.1126146,3.29234783 C10.3741843,3.15689383 10.6194059,3.05530333 10.8809757,2.95371284 C11.1261973,2.88598584 11.387767,2.6997366 11.6329886,2.71666835 C11.8128178,2.54735085 12.0743875,2.5304191 12.303261,2.44576035 Z M1.63474593,16.9858678 C1.63474593,16.9456711 1.56482072,16.9054744 1.52985811,16.9054744 C1.54733942,16.9858678 1.56482072,17.0461629 1.63474593,16.9858678 Z M11.9599508,1.48065063 C11.9436027,1.58224113 11.9762989,1.73462688 11.8618621,1.81928562 C11.8128178,1.75155863 11.7637735,1.73462688 11.6820329,1.75155863 C11.6329886,1.93780787 11.6166405,2.14098886 11.5839443,2.32723811 C11.4368113,2.39496511 11.3060265,2.4288286 11.1588935,2.4965556 C11.1261973,2.22564761 11.2569821,1.97167137 11.3060265,1.71769513 C11.5349,1.59917288 11.7474254,1.54837763 11.9599508,1.48065063 Z M12.2378686,1.53144588 C12.3686535,1.68383163 12.1888243,1.81928562 12.2378686,1.97167137 C12.2869129,1.98860312 12.3196091,2.05633012 12.3359572,2.05633012 C12.2869129,2.12405711 12.1561281,2.12405711 12.0743875,2.15792061 C12.0743875,1.95473962 12.1724762,1.73462688 12.1397799,1.53144588 C12.1724762,1.53144588 12.2051724,1.51451413 12.2378686,1.53144588 Z M12.5811789,1.87008087 C12.6302232,1.85314912 12.6792675,1.93780787 12.6956156,1.97167137 C12.6465713,2.03939837 12.6138751,2.00553487 12.5648307,2.03939837 C12.5321345,1.97167137 12.5811789,1.92087612 12.5811789,1.87008087 L12.5811789,1.87008087 Z M16.6355095,0.803380656 C16.6682058,0.837244155 16.6191614,0.854175905 16.6682058,0.888039404 C16.7172501,0.871107654 16.7662944,0.820312406 16.8153387,0.803380656 C17.4038706,0.820312406 18.0087506,0.820312406 18.5972824,0.938834652 C18.4664976,1.14201565 18.2539722,1.34519664 18.0577949,1.53144588 C16.3575917,1.41292364 14.6573885,1.53144588 12.9735334,1.90394437 C13.0225778,1.83621737 13.0062296,1.76849038 13.055274,1.68383163 C13.1370145,1.59917288 13.218755,1.70076338 13.3004956,1.58224113 C13.3331918,1.53144588 13.218755,1.48065063 13.218755,1.42985539 C13.2514513,1.31133314 13.3822361,1.20974264 13.3985842,1.1250839 C14.4612112,0.888039404 15.5565344,0.786448907 16.6355095,0.803380656 Z M12.8590967,2.29337461 C12.8917929,2.4288286 12.761008,2.58121435 12.8264005,2.71666835 C12.6792675,2.76746359 12.5484826,2.80132709 12.4013497,2.85212234 C12.3850016,2.80132709 12.4013497,2.75053184 12.4667421,2.6997366 C12.4994383,2.61507785 12.4994383,2.51348735 12.4994383,2.4288286 C12.597527,2.32723811 12.7283118,2.32723811 12.8590967,2.29337461 Z M17.6981365,1.87008087 C17.5836998,1.98860312 17.4529149,2.10712536 17.3384782,2.22564761 C15.9815852,2.15792061 14.6083442,2.31030636 13.2514513,2.5642826 C13.2024069,2.51348735 13.2841475,2.4626921 13.2514513,2.41189685 C13.2514513,2.34416986 13.1697107,2.44576035 13.1206664,2.41189685 C13.055274,2.34416986 13.1533626,2.27644286 13.1043183,2.20871586 C13.1043183,2.19178411 13.1206664,2.20871586 13.1206664,2.20871586 C13.8890275,2.00553487 14.6573885,1.90394437 15.4257496,1.83621737 C15.801756,1.80235387 16.1941106,1.78542212 16.5701171,1.78542212 C16.9461236,1.81928562 17.3711744,1.80235387 17.6981365,1.87008087 L17.6981365,1.87008087 Z M1.64429487,17.8367206 C1.69333919,19.1573971 1.84047216,20.4611418 2.18378242,21.7818182 C2.1510862,21.8326135 2.1347381,21.8834087 2.1347381,21.934204 C2.02030134,21.9511357 1.97125702,22.069658 1.90586459,22.1712485 C1.46446568,20.715118 1.26828839,19.1912606 1.2846365,17.7859254 C1.41542136,17.7351301 1.52985811,17.8197889 1.64429487,17.8367206 Z M22.030385,2.83519059 C22.0467332,2.85212234 21.9976888,2.88598584 22.030385,2.90291759 C21.9486445,2.98757634 21.8178596,2.95371284 21.7851634,3.08916683 C21.8342078,3.15689383 21.8996002,3.12303033 21.9486445,3.15689383 C21.9649926,3.12303033 21.9649926,3.07223508 21.9813407,3.02143984 C22.0794294,3.00450809 22.2592586,2.80132709 22.324651,3.00450809 C22.2265623,3.05530333 22.1121256,3.03837158 22.030385,3.19075733 C22.0957775,3.24155258 22.177518,3.17382558 22.2429104,3.20768908 C22.2265623,3.25848433 22.1448218,3.24155258 22.1121256,3.27541608 C20.804277,2.73360009 19.4800803,2.4288286 18.1722317,2.25951111 C18.2376241,2.22564761 18.3030165,2.17485236 18.3684089,2.19178411 C18.4011052,2.17485236 18.3357127,2.14098886 18.3684089,2.12405711 C18.384757,2.07326187 18.3193646,2.14098886 18.2866684,2.12405711 C18.2376241,2.05633012 18.1722317,1.97167137 18.2049279,1.88701262 C19.4637322,2.00553487 20.7552327,2.36110161 22.030385,2.83519059 L22.030385,2.83519059 Z M22.2276955,3.30974088 C22.2626581,3.28930085 22.315102,3.39150101 22.315102,3.41194104 C22.2801394,3.41194104 22.2451768,3.39150101 22.2102142,3.37106098 C22.2276955,3.33018091 22.2451768,3.30974088 22.2276955,3.30974088 L22.2276955,3.30974088 Z M31.7575091,15.8218424 C31.6103761,15.7371837 31.4795912,15.6694567 31.3815026,15.6694567 C31.0545404,13.3667388 30.3352237,11.0470891 28.7331092,8.71050765 C27.9647481,7.57608044 26.8040325,6.30619923 25.7414055,5.47654351 C24.6624304,4.59609253 23.5671072,3.95268606 22.4717839,3.47859707 C22.4717839,3.32621133 22.5371764,3.19075733 22.4881321,3.03837158 C22.4881321,3.02143984 22.5044802,3.03837158 22.5044802,3.03837158 C23.6651958,3.54632407 24.8095633,4.18973055 25.9539309,5.12097677 C27.0819503,5.98449599 28.3244065,7.3559677 29.1091156,8.52425841 C29.9592172,9.74334437 30.531401,10.9793621 30.9727999,12.1815163 C31.1853253,12.7910593 31.3651545,13.4006023 31.4959393,14.0101452 C31.5613318,14.3149167 31.6267242,14.6196882 31.6594204,14.9244597 C31.7084647,15.0768454 31.7084647,15.2292312 31.741161,15.3816169 C31.741161,15.5170709 31.8229015,15.7202519 31.7575091,15.8218424 Z M9.81834867,28.5883815 C10.1289627,28.486791 10.4232286,28.4698593 10.7174946,28.4021323 C10.8973238,28.1820195 11.077153,27.9619068 11.2733302,27.7587258 C11.4041151,27.9788385 11.5022037,28.1820195 11.6329886,28.4021323 C11.9109064,28.5206545 12.1888243,28.5714498 12.450394,28.622245 C12.2705648,28.825426 12.0580394,29.0116753 11.8291659,29.2148562 C11.7474254,29.4688325 11.8291659,29.8074675 11.7310773,30.0275802 C11.4858556,29.909058 11.2242859,29.841331 10.9790643,29.705877 C10.7011465,29.8074675 10.4232286,29.8751945 10.1453108,29.9937167 C10.1289627,29.7397405 10.2433995,29.4688325 10.2924438,29.1979245 C10.1126146,28.96088 10.0308741,28.8084943 9.81834867,28.5883815 Z M15.9652371,29.8751945 C16.2758512,29.773604 16.5701171,29.7566722 16.864383,29.6889452 C17.0442122,29.4688325 17.2240414,29.2487197 17.4202187,29.0455387 C17.5510036,29.2656515 17.6490922,29.4688325 17.7798771,29.6889452 C18.0577949,29.8074675 18.3357127,29.8582627 18.5972824,29.909058 C18.4174533,30.112239 18.2049279,30.2984882 17.9760544,30.5016692 C17.8943138,30.7556454 17.9760544,31.0942804 17.8779657,31.3143932 C17.6327441,31.1958709 17.3711744,31.1281439 17.1259528,30.9926899 C16.8480349,31.0942804 16.5701171,31.1620074 16.2921993,31.2805297 C16.2758512,31.0265534 16.3902879,30.7556454 16.4393322,30.4847375 C16.243155,30.2307612 16.1614144,30.0953072 15.9652371,29.8751945 Z M22.4881321,27.4370226 C22.7987461,27.3354321 23.093012,27.3185003 23.387278,27.2507733 C23.5671072,27.0306606 23.7469363,26.8105478 23.9431136,26.6073668 C24.0738985,26.8274796 24.1719871,27.0306606 24.302772,27.2507733 C24.5806898,27.3692956 24.8586077,27.4200908 25.1201774,27.4708861 C24.9403482,27.674067 24.7278228,27.8603163 24.4989493,28.0634973 C24.4172088,28.3174735 24.4989493,28.6561085 24.4008606,28.8762213 C24.155639,28.757699 23.8940693,28.689972 23.6488477,28.554518 C23.3709299,28.6561085 23.093012,28.7238355 22.8150942,28.8423578 C22.7987461,28.5883815 22.9131829,28.3174735 22.9622272,28.0465655 C22.7660499,27.7925893 22.6843093,27.6402035 22.4881321,27.4370226 Z M26.5588108,22.6453375 C26.8694249,22.543747 27.1636908,22.5268152 27.4579568,22.4590882 C27.637786,22.2389755 27.8176151,22.0188627 28.0137924,21.8156817 C28.1445773,22.0357945 28.2426659,22.2389755 28.3734508,22.4590882 C28.6513686,22.5776105 28.9292865,22.6284057 29.1908562,22.679201 C29.011027,22.8823819 28.7985016,23.0686312 28.5696281,23.2718122 C28.4878875,23.5257884 28.5696281,23.8644234 28.4715394,24.0845362 C28.2263178,23.9660139 27.9647481,23.8982869 27.7195265,23.7628329 C27.4416087,23.8644234 27.1636908,23.9321504 26.885773,24.0506727 C26.8694249,23.7966964 26.9838616,23.5257884 27.032906,23.2548804 C26.8367287,23.0178359 26.7549881,22.8654502 26.5588108,22.6453375 Z M27.6704822,17.4134269 C27.9810962,17.3118364 28.2753621,17.2949046 28.5696281,17.2271776 C28.7494573,17.0070649 28.9292865,16.7869521 29.1254637,16.5837711 C29.2562486,16.8038839 29.3543372,17.0070649 29.4851221,17.2271776 C29.7630399,17.3456999 30.0409578,17.3964951 30.3025275,17.4472904 C30.1226983,17.6504714 29.9101729,17.8367206 29.6812994,18.0399016 C29.5995589,18.2938778 29.6812994,18.6325128 29.5832108,18.8526256 C29.3379891,18.7341033 29.0764194,18.6663763 28.8311978,18.5309223 C28.55328,18.6325128 28.2753621,18.7002398 27.9974443,18.8187621 C27.9810962,18.5647858 28.095533,18.2938778 28.1445773,18.0229699 C27.9647481,17.7859254 27.8830076,17.6335396 27.6704822,17.4134269 Z M23.0603158,6.08608649 C22.7660499,6.20460873 22.4717839,6.23847223 22.177518,6.34006273 C22.0140369,6.56017547 21.8505559,6.79721996 21.6543786,7.01733271 C21.5235937,6.81415171 21.409157,6.59403897 21.262024,6.39085798 C20.9841062,6.28926748 20.7061883,6.25540398 20.4282705,6.22154048 C20.5917516,6.01835949 20.804277,5.79824675 21.0168024,5.59506575 C21.0821948,5.32415776 20.9841062,5.00245452 21.0658467,4.78234178 C21.3274164,4.88393228 21.572638,4.93472752 21.8342078,5.05324977 C22.1121256,4.93472752 22.3736953,4.85006878 22.6516131,4.71461478 C22.6843093,4.96859102 22.5862207,5.23949901 22.5535245,5.51040701 C22.7497018,5.7474515 22.8314423,5.88290549 23.0603158,6.08608649 L23.0603158,6.08608649 Z M17.0605603,5.10404502 C16.7662944,5.22256726 16.4720285,5.25643076 16.1777625,5.35802126 C16.0142814,5.578134 15.8508004,5.8151785 15.6546231,6.03529124 C15.5238382,5.83211025 15.4094015,5.6119975 15.2622685,5.40881651 C14.9843507,5.30722601 14.7064328,5.27336251 14.428515,5.23949901 C14.5919961,5.03631802 14.8045215,4.81620528 15.0170469,4.61302428 C15.0824393,4.34211629 14.9843507,4.02041305 15.0660912,3.80030031 C15.3276609,3.90189081 15.5728825,3.95268606 15.8344523,4.0712083 C16.1123701,3.95268606 16.3739398,3.86802731 16.6518576,3.73257331 C16.6845539,3.98654955 16.5864652,4.25745755 16.553769,4.52836554 C16.7499463,4.74847828 16.8316868,4.90086402 17.0605603,5.10404502 L17.0605603,5.10404502 Z" id="形状"></path>
                <path d="M10.5501109,7.1406512 C10.2473793,7.2568771 9.94464774,7.29008451 9.64191616,7.38970671 C9.47373195,7.60555483 9.30554774,7.83800664 9.10372668,8.05385476 C8.96917932,7.85461034 8.85145037,7.63876223 8.70008458,7.43951782 C8.41417142,7.33989561 8.12825826,7.30668821 7.8423451,7.27348081 C8.01052931,7.07423639 8.22916879,6.85838828 8.44780826,6.65914386 C8.51508194,6.39348465 8.41417142,6.07801433 8.49826352,5.86216621 C8.76735826,5.96178842 9.01963458,6.01159952 9.28872932,6.12782543 C9.57464248,6.01159952 9.84373721,5.92858102 10.1296504,5.79575141 C10.1632872,6.04480692 10.0623767,6.31046614 10.0287398,6.57612536 C10.2305609,6.79197347 10.314653,6.94140678 10.5501109,7.1406512 Z M6.41277931,12.038743 C6.11004773,12.1549689 5.80731614,12.1881763 5.50458456,12.2877985 C5.33640035,12.5036467 5.16821614,12.7360985 4.96639509,12.9519466 C4.83184772,12.7527022 4.71411877,12.5368541 4.56275298,12.3376096 C4.27683982,12.2379874 3.99092666,12.20478 3.70501351,12.1715726 C3.87319772,11.9723282 4.09183719,11.7564801 4.31047667,11.5572357 C4.37775035,11.2915765 4.27683982,10.9761062 4.36093193,10.760258 C4.63002667,10.8598802 4.88230298,10.9096913 5.15139772,11.0259173 C5.43731088,10.9096913 5.70640562,10.8266728 5.99231878,10.6938432 C6.02595562,10.9428987 5.92504509,11.208558 5.89140825,11.4742172 C6.0932293,11.6900653 6.19413983,11.8394986 6.41277931,12.038743 L6.41277931,12.038743 Z M5.31958193,17.7836236 C5.01685035,17.8998495 4.71411877,17.9330569 4.41138719,18.0326791 C4.24320298,18.2485272 4.07501877,18.4809791 3.87319772,18.6968272 C3.73865035,18.4975828 3.6209214,18.2817346 3.46955561,18.0824902 C3.18364245,17.982868 2.89772929,17.9496606 2.61181613,17.9164532 C2.78000034,17.7172088 2.99863982,17.5013607 3.21727929,17.3021163 C3.28455298,17.0364571 3.18364245,16.7209867 3.26773456,16.5051386 C3.53682929,16.6047608 3.78910561,16.6545719 4.05820035,16.7707978 C4.34411351,16.6545719 4.61320825,16.5715534 4.8991214,16.4387238 C4.93275825,16.6877793 4.83184772,16.9534385 4.79821088,17.2190978 C5.00003193,17.4515496 5.08412404,17.5843792 5.31958193,17.7836236 Z M6.6482372,29.8379106 C11.3237583,33.1254434 16.066553,33.6567619 20.859803,32.3948806 C20.8261662,32.4778991 20.9270767,32.5609176 20.859803,32.6439361 C20.8093478,32.7103509 20.7757109,32.6937472 20.7252557,32.7103509 C20.7757109,32.8431805 20.6916188,32.9926138 20.7588925,33.1254434 C20.2038846,33.2914804 19.6488767,33.4077063 19.0770504,33.4907248 C19.0770504,33.3911026 18.9929583,33.3412915 19.060232,33.2416693 C18.9761399,33.1420471 18.8247741,33.1254434 18.7070451,33.1586508 C18.6565899,33.2748767 18.740682,33.3911026 18.7238636,33.4907248 C18.6734083,33.5073285 18.6565899,33.4907248 18.622953,33.5571397 C18.1352188,33.6069508 17.6474846,33.6899693 17.1597504,33.6733656 C17.1597504,33.6235545 17.1597504,33.5571397 17.1765688,33.5073285 C16.9411109,33.42431 16.705653,33.4575174 16.4701951,33.4077063 C16.4197399,33.5073285 16.2683741,33.5903471 16.2851925,33.6899693 C15.6797293,33.706573 15.0574478,33.6567619 14.4519846,33.5903471 C14.5360767,33.5239323 14.586532,33.3911026 14.7210793,33.3246878 C14.7378978,33.258273 14.6874425,33.1752545 14.6706241,33.1088397 C14.5360767,33.092236 14.4183478,33.2416693 14.3174372,33.3744989 C14.3174372,33.4575174 14.4183478,33.4741211 14.3847109,33.5571397 C14.1997083,33.6235545 14.0147057,33.540536 13.8128846,33.5239323 C13.627882,33.5073285 13.4428793,33.4575174 13.2578767,33.4409137 C12.8878714,33.3578952 12.5178662,33.2914804 12.1310425,33.1918582 C12.1478609,33.0424249 11.9964951,32.926199 11.8787662,32.8265768 C11.7778556,32.8431805 11.7442188,33.0258212 11.6264899,33.0258212 C10.8023872,32.8431805 9.97828458,32.4945028 9.15418195,32.1292214 C8.33007931,31.7473362 7.5227951,31.2824326 6.71551089,30.7345105 C6.63141878,30.4190401 6.69869246,30.1201735 6.6482372,29.8379106 L6.6482372,29.8379106 Z M31.5899557,15.3428795 C31.7245031,15.3926906 31.8590505,15.5089166 31.9935978,15.542124 C31.9935978,15.5919351 31.9431426,15.6251425 31.9263241,15.6915573 C31.8254136,15.7247647 31.7245031,15.6085388 31.6235926,15.5919351 C31.5899557,15.5089166 31.6067741,15.425898 31.5899557,15.3428795 Z M9.94464774,9.74743227 C9.92782932,9.79724337 9.84373721,9.84705448 9.81010037,9.89686558 C9.9110109,9.97988409 10.0287398,9.74743227 9.94464774,9.73082857 C9.995103,9.58139526 10.1464688,9.56479156 10.2641977,9.51498045 C10.3314714,9.46516935 10.2978346,9.41535825 10.3314714,9.36554714 C12.0133135,8.10366586 13.6783372,7.58895113 15.3433609,7.38970671 C15.3769978,7.52253632 15.3433609,7.65536593 15.2088135,7.77159184 C13.4596978,8.00404365 11.710582,8.61838059 9.92782932,10.1625248 C9.92782932,10.0462989 9.87737406,10.0296952 9.96146616,9.91346928 C9.9110109,9.89686558 9.86055563,10.0130915 9.79328195,10.0462989 C9.77646353,10.0795063 9.89419248,10.0462989 9.87737406,10.0629026 C9.86055563,10.1127137 9.79328195,10.1459211 9.75964511,10.1957322 C9.74282669,10.2289396 9.84373721,10.1957322 9.82691879,10.2289396 C9.45691353,10.6274284 9.07008984,11.0093136 8.75053984,11.4078024 C8.68326616,11.3081802 8.63281089,11.1587469 8.54871879,11.0757284 C8.8009951,10.760258 9.08690826,10.4613914 9.40645826,10.1293174 C9.44009511,10.09611 9.49055037,10.0462989 9.52418721,10.09611 C9.60827932,9.97988409 9.79328195,9.73082857 9.94464774,9.74743227 L9.94464774,9.74743227 Z M8.34689773,11.5240283 C8.397353,11.6568579 8.34689773,11.7896875 8.397353,11.9225171 C7.90961878,12.6696837 7.53961352,13.4168502 7.30415562,14.1640168 C7.2873372,14.1972242 7.27051878,14.2138279 7.23688194,14.2470353 C7.23688194,14.2802427 7.25370036,14.3300538 7.23688194,14.3632612 C7.10233457,14.76175 7.00142404,15.1768425 6.95096878,15.5753314 C6.90051352,15.7745758 6.8836951,15.9904239 6.86687668,16.1896683 C6.81642141,16.372309 6.85005825,16.6213645 6.78278457,16.7541941 C6.85005825,16.8870237 6.78278457,17.0696645 6.79960299,17.2357015 C6.37914246,17.3519274 6.42959773,17.9330569 6.83323983,18.0326791 C6.85005825,18.2983383 6.93415036,18.5806013 6.91733194,18.8462605 C6.81642141,18.9624864 6.71551089,18.9624864 6.61460036,18.8960716 C6.48005299,18.6304124 6.51368983,18.3647531 6.46323457,18.0824902 L6.41277931,17.2855126 C6.41277931,16.7541941 6.42959773,16.2228757 6.54732667,15.6915573 C6.5641451,15.6417462 6.58096352,15.7247647 6.59778194,15.6915573 C6.58096352,15.6085388 6.66505562,15.5587277 6.69869246,15.5255203 C6.81642141,15.1104277 6.93415036,14.6953352 6.9677872,14.2968464 C6.95096878,14.263639 6.93415036,14.2138279 6.8836951,14.1806205 C7.16960826,13.3006243 7.59006878,12.4206281 8.19553194,11.5572357 C8.26280563,11.5240283 8.29644247,11.540632 8.34689773,11.5240283 L8.34689773,11.5240283 Z M19.581603,7.87121405 C19.4806925,7.95423255 19.379782,8.07045846 19.2956899,8.12026956 C18.303403,7.85461034 17.3111162,7.67196963 16.3020109,7.68857333 C16.2851925,7.57234743 16.2683741,7.42291412 16.3188293,7.33989561 C17.4120267,7.32329191 18.4884057,7.50593262 19.581603,7.87121405 L19.581603,7.87121405 Z M15.6965478,26.6832074 C15.6460925,26.6832074 15.5788188,26.7496222 15.5620004,26.7994333 C14.3678925,26.6998111 13.1737846,26.4009445 11.9964951,25.8198149 C11.9628583,25.703589 12.030132,25.5873631 12.0805872,25.4711372 C13.2578767,26.0190594 14.4351662,26.3345297 15.6124557,26.4507556 C15.6629109,26.5171704 15.6965478,26.5835852 15.6965478,26.6832074 Z M25.7035083,20.4236121 C25.6025978,20.3571973 25.4848689,20.3073862 25.3839583,20.3073862 C25.6698715,19.4772011 25.8716925,18.6636198 25.9389662,17.8334347 C25.9726031,17.4183422 25.9726031,17.0032497 25.9726031,16.5881571 C25.9557846,16.1730646 25.8716925,15.7579721 25.8548741,15.3428795 C25.8716925,15.3262758 25.8716925,15.3096721 25.888511,15.2930684 C25.9726031,15.2100499 26.0398767,15.2266536 26.1239689,15.2432573 C26.3089715,15.4591054 26.2416978,15.6749536 26.2921531,15.9074054 C26.3257899,16.1232535 26.3426083,16.3391016 26.3426083,16.5549497 C26.3762452,16.986646 26.3594268,17.4183422 26.3257899,17.8500384 C26.2248794,18.7134309 26.0398767,19.5768233 25.7035083,20.4236121 L25.7035083,20.4236121 Z M19.901153,25.8032112 C19.9516083,25.9194371 19.9516083,26.0522668 19.9179715,26.1684927 C18.6565899,26.6666037 17.3952083,26.8658481 16.1506451,26.7994333 C16.066553,26.6832074 16.0497346,26.5669815 16.0160978,26.4673593 C17.3111162,26.483963 18.6061346,26.317926 19.901153,25.8032112 Z M25.5521425,20.8054972 C25.0475899,22.0175674 24.1898504,23.3292598 22.8611952,24.4583114 C22.8275583,24.4583114 22.8443767,24.3254818 22.8107399,24.2756707 C22.7939215,24.2258596 22.7434662,24.1926522 22.6930109,24.1428411 C23.4666583,23.4620894 24.0721215,22.7315265 24.5430373,22.0009637 C24.5598557,21.9511526 24.6271294,21.9677563 24.6439478,21.9013415 C24.7953136,21.486249 25.1148636,21.0213453 25.2662294,20.5730454 C25.2830478,20.5564417 25.2830478,20.5564417 25.2830478,20.539838 C25.2830478,20.5232343 25.2998662,20.539838 25.2998662,20.539838 C25.3839583,20.5730454 25.4848689,20.7224787 25.5521425,20.8054972 Z M22.0539109,24.6243485 C22.1043662,24.7405744 22.2389136,24.8401966 22.3566425,24.8401966 C21.7679978,25.3217039 21.0952609,25.6703816 20.4729794,25.9526445 C20.4729794,25.8198149 20.5907083,25.703589 20.5738899,25.5707594 C20.5570715,25.5541557 20.5738899,25.5541557 20.5570715,25.537552 C21.0616241,25.2552891 21.5493583,25.0062336 22.0539109,24.6243485 Z M32.3636031,15.8409906 C32.5822426,15.8908017 32.800882,15.9240091 33.0195215,16.1232535 C33.0363399,16.1896683 33.0363399,16.2726868 33.1036136,16.3557053 C33.1372505,16.8870237 33.120432,17.4017385 33.120432,17.9330569 C33.1036136,17.9994717 33.0531584,18.0160754 33.0531584,18.0990939 C33.0195215,18.148905 33.1372505,18.148905 33.0867952,18.1987161 C33.0363399,19.4439937 32.800882,20.6726676 32.4308768,21.9179452 C32.2122373,21.8349267 32.0104162,21.7519082 31.8085952,21.6854934 C32.3131478,19.7262566 32.5486057,17.8002273 32.3636031,15.8409906 L32.3636031,15.8409906 Z M10.4405293,6.57612536 C10.4654951,6.57612536 10.5403924,6.6353882 10.5154266,6.67489676 C10.4904608,6.69465104 10.4405293,6.6353882 10.4155635,6.61563392 C10.4405293,6.59587964 10.4405293,6.59587964 10.4405293,6.57612536 Z" id="形状"></path>
                <path d="M21.6308339,32.1243226 C21.597211,32.1580374 21.6812683,32.0231781 21.6476454,31.9726059 C21.5131536,31.9051762 21.3954733,32.1243226 21.3450389,32.225467 C18.6047691,33.085195 15.8644992,33.1863395 13.1578523,32.6131875 C10.4680169,32.0063207 7.71093562,30.7251575 5.1387805,28.078544 C3.23908423,26.0556547 2.1463386,23.931621 1.50750268,21.8918743 C1.50750268,21.841302 1.49069121,21.8075872 1.54112563,21.757015 C1.52431416,21.7064427 1.49069121,21.8075872 1.45706827,21.757015 C1.47387974,21.7233001 1.50750268,21.6895853 1.5579371,21.6390131 C1.69242887,21.6390131 1.7932977,21.7738724 1.89416653,21.8075872 C2.48256802,23.5776153 3.33995306,25.3476435 4.83617401,27.134529 C4.86979696,27.3199605 4.85298548,27.505392 4.88660843,27.6908236 C4.98747726,27.707681 5.07153461,27.5559643 5.20602638,27.5559643 C5.29008374,27.6065365 5.39095257,27.7413958 5.44138698,27.791968 C7.97991916,30.3880093 10.5520743,31.5511706 13.1410409,32.1748948 C14.4355242,32.4614708 15.7300075,32.5963301 17.0244907,32.5457579 C17.6801381,32.5457579 18.318974,32.4614708 18.9746214,32.3603263 C19.2940394,32.3097541 19.6302688,32.2423245 19.9664982,32.1748948 C20.2859162,32.1243226 20.6221456,31.9557485 20.9415636,31.9726059 C21.0088095,31.9894633 20.991998,32.0737504 21.0424324,32.1243226 C21.1264898,32.0231781 21.1769242,31.9388911 21.2441701,31.8377466 C22.740391,31.3320243 24.236612,30.6071556 25.7496444,29.5114239 C25.7832673,29.5451387 25.8000788,29.5788536 25.8337017,29.595711 C25.8673247,29.6462832 25.7664559,29.5788536 25.7328329,29.6125684 C25.7496444,29.6631406 25.8337017,29.7305703 25.8673247,29.7811425 C25.8337017,29.7979999 25.8000788,29.7642851 25.7664559,29.7811425 C25.7328329,29.8148573 25.8168903,29.8654295 25.8505132,29.9160018 C24.4551611,30.9443038 23.0429975,31.6691725 21.6308339,32.1243226 Z" id="路径"></path>
                <path d="M32.5319452,16.0755396 C32.7152681,18.0440757 32.5152795,19.9954942 31.9819765,21.9469126 C31.9653107,22.0153834 31.9319793,21.9640303 31.8986479,22.0153834 C31.8819821,22.0667365 31.948645,22.0667365 31.948645,22.1009719 C31.298682,24.2578028 30.1987445,26.4488691 28.2821868,28.5201115 C27.6655552,29.1534666 26.9322636,29.8552925 26.2823005,30.3003529 C26.2156377,30.2489997 26.2989663,30.2832352 26.2989663,30.2489997 C26.2989663,30.1805289 26.1989719,30.1120581 26.2656348,30.0778227 C26.2156377,30.0093519 26.2156377,29.9579988 26.1823062,29.8895279 C26.2989663,29.7868217 26.432292,29.7012332 26.548952,29.5814092 C26.5656178,29.5985269 26.5156206,29.6327623 26.4989549,29.6498801 C26.5989492,29.7354686 26.6322806,29.5814092 26.6656121,29.478703 C26.848935,29.3246436 27.0322579,29.1705843 27.1989151,29.0165249 C27.2322465,29.0849958 27.2489122,29.1192312 27.3155751,29.1363489 C27.3489066,29.1363489 27.3989037,29.0849958 27.4322352,29.0849958 C27.4822323,28.9822895 27.4322352,28.8795833 27.4489009,28.7768771 C31.4486735,24.7028632 32.4319509,20.3036129 32.1486337,16.0241865 C32.248628,16.0413042 32.3319566,16.109775 32.4319509,16.0413042 C32.365288,16.1268927 32.481948,16.0926573 32.5319452,16.0755396 L32.5319452,16.0755396 Z M30.6166883,24.5316861 C30.6361354,24.5145684 30.6555825,24.5659215 30.6750295,24.5488038 C30.6944766,24.4974507 30.7333707,24.4632153 30.6944766,24.4118622 C30.6750295,24.4632153 30.5777942,24.4974507 30.6166883,24.5316861 L30.6166883,24.5316861 Z M30.7064208,25.062335 C30.6878289,25.0280996 30.7621966,24.9938642 30.7250128,24.9596287 C30.6878289,24.9938642 30.669237,24.9767465 30.6320532,25.0109819 C30.669237,25.062335 30.669237,25.0794527 30.7064208,25.062335 L30.7064208,25.062335 Z M26.6489464,29.6841155 C26.6156149,29.7354686 26.5156206,29.7868217 26.5156206,29.8381748 C26.5989492,29.8552925 26.6489464,29.7525863 26.6489464,29.6841155 Z M26.5338736,30.0115335 C26.5831876,29.9765708 26.6325017,29.9590895 26.6325017,29.9066456 C26.5831876,29.9590895 26.5092166,29.9765708 26.5338736,30.0115335 Z M19.849333,0.652486961 C20.3326388,0.703840077 20.8159447,0.840781721 21.2825848,0.960605659 C21.3492477,0.977723365 21.2992505,1.01195878 21.3159162,1.06331189 C21.3659134,1.04619419 21.3992448,0.977723365 21.449242,1.01195878 C21.4992392,1.02907648 21.565902,1.02907648 21.6158992,1.0975473 C21.7325592,1.06331189 21.9325479,1.16601813 22.0825393,1.20025354 C22.2491965,1.25160665 22.399188,1.30295977 22.5658452,1.37143059 C22.8824938,1.47413682 23.1991425,1.61107847 23.5157912,1.74802011 C24.1490885,2.0390211 24.7823858,2.3471398 25.4156831,2.74084703 C27.265578,3.80214477 29.3487928,5.7535632 30.6987161,7.77345244 C32.0319736,9.77622398 32.7985967,11.8303486 33.2319054,13.7817671 C33.2319054,13.8160025 33.2152397,13.8502379 33.1652425,13.8844733 C33.315234,13.9187087 33.2819025,14.2268274 33.3318997,14.3980045 L33.1819082,14.5520638 C33.2819025,14.6034169 33.3318997,14.5178284 33.3318997,14.4322399 C33.3985626,14.8773002 33.5152226,15.3737137 33.4985569,15.8358917 C33.2652368,15.7674209 33.0485825,15.5962438 32.8152624,15.5620084 C32.4152852,12.5492923 31.3820106,9.41675217 28.7321612,6.404036 C27.265578,4.74361857 25.5823403,3.56249689 23.999097,2.75796474 C23.1991425,2.36425751 22.399188,2.0390211 21.5825678,1.79937323 C21.1825905,1.66243158 20.7659475,1.57684306 20.3659703,1.47413682 C20.1659816,1.43990141 19.965993,1.3885483 19.7493387,1.35431289 C19.6493443,1.35431289 19.54935,1.30295977 19.4493557,1.32007747 C19.3993586,1.30295977 19.3493614,1.28584206 19.2993642,1.30295977 C19.2660328,1.26872436 19.1493728,1.30295977 19.1993699,1.25160665 C19.2327014,1.26872436 19.2160356,1.21737124 19.2327014,1.20025354 C19.31603,1.02907648 19.5660157,0.960605659 19.6326786,0.80654631 C19.6826758,0.738075488 19.7326729,0.80654631 19.7826701,0.755193194 C19.8326672,0.703840077 19.9159958,0.669604666 19.849333,0.652486961 Z M21.352779,1.15035481 L21.3010162,1.0804296 C21.2751348,1.1153922 21.2492534,1.15035481 21.2492534,1.18531742 C21.3010162,1.15035481 21.3268976,1.22028003 21.352779,1.15035481 Z M32.8652596,14.2952982 C32.8819253,14.2610628 32.8819253,14.2097097 32.8652596,14.1754743 C32.8319281,14.2268274 32.7485995,14.2610628 32.7485995,14.3124159 C32.781931,14.2952982 32.8152624,14.3295336 32.8652596,14.2952982 Z M33.015251,14.3808868 C33.0319168,14.3466513 33.015251,14.3124159 33.015251,14.2781805 C32.9819196,14.3295336 32.898591,14.3637691 32.898591,14.4151222 C32.9319224,14.4151222 32.9652539,14.4151222 33.015251,14.3808868 Z M33.1652425,14.4664753 C33.198574,14.4151222 33.198574,14.3808868 33.1652425,14.3295336 C33.1319111,14.3808868 33.0485825,14.4322399 33.0319168,14.483593 C33.0819139,14.4664753 33.1152454,14.483593 33.1652425,14.4664753 Z M11.2664876,1.42278371 C11.3164848,1.67954929 11.3331505,1.93631487 11.1998248,2.19308045 C9.94989583,2.72372932 8.6999669,3.39131984 7.43337225,4.36702905 C6.1667776,5.34273826 4.98351155,6.59233076 4.11689415,7.82480556 C2.36699365,10.3239906 1.51704198,12.8402933 1.20039332,15.3737137 C0.883744653,17.9071341 1.11706472,20.4576722 2.01701355,23.025328 C2.45032225,24.3091559 3.10028529,25.5929839 3.96690268,26.8939295 C4.86685151,28.1948751 6.11678044,29.5300561 7.3000465,30.4372945 C7.20005219,30.6084716 7.2167179,30.8481194 7.18338647,31.0535319 C7.16672075,31.0877673 7.06672643,31.1220027 7.10005787,31.1391204 C7.13338931,31.1904735 7.08339215,31.1562381 7.06672643,31.1220027 C7.05006071,31.1391204 7.03339499,31.0877673 7.01672928,31.0877673 C6.98339784,31.0706496 6.93340068,31.0364142 6.90006924,31.0021788 C6.81674065,30.933708 6.73341205,30.8823548 6.65008346,30.7967663 C6.48342626,30.6769424 6.33343479,30.522883 6.1667776,30.4030591 C5.85012894,30.1120581 5.48348312,29.769704 5.2001659,29.4958207 C3.30027392,27.4930492 2.06701071,25.353336 1.38371623,23.2992113 C1.51704198,23.1965051 1.55037342,23.0937989 1.55037342,22.9910926 C1.61703629,22.8712687 1.75036205,22.854151 1.78369348,22.734327 C1.68369917,22.6145031 1.68369917,22.4775615 1.70036489,22.3406198 C1.65036773,22.3063844 1.60037057,22.4090906 1.56703914,22.443326 C1.58370485,22.3406198 1.71703061,22.3063844 1.68369917,22.1694428 C1.48371054,22.3919729 1.30038763,22.443326 1.100399,22.5117969 C0.983738967,22.1694428 0.900410372,21.8099709 0.817081776,21.4676168 C0.817081776,21.4162637 0.917076091,21.4333814 0.917076091,21.3649106 L0.917076091,21.0567919 C0.950407529,20.9198503 1.03373612,20.7829086 0.917076091,20.6630847 C0.817081776,20.7829086 0.817081776,20.9027325 0.7504189,21.0225565 C0.600427428,20.5774961 0.550430271,20.0468473 0.500433114,19.5675515 C0.433770238,19.0711381 0.400438799,18.5747246 0.38377308,18.0954288 C0.350441642,17.1197196 0.38377308,16.1268927 0.533764552,15.1511835 C0.56709599,15.1511835 0.583761709,15.2025366 0.617093147,15.2025366 C0.650424586,15.1340658 0.56709599,15.1683012 0.533764552,15.1169481 C0.550430271,14.6718878 0.667090305,14.2268274 0.7504189,13.7817671 C1.13373044,13.5078838 1.16706188,13.148412 0.983738967,12.8402933 C1.71703061,10.2555197 3.0169567,7.60227539 5.45015168,5.18867891 C7.35004366,3.30573131 9.33326423,2.15884504 11.2664876,1.42278371 Z M10.6367216,1.95343258 C10.6160165,1.91919717 10.6574268,1.86784405 10.6160165,1.83360864 C10.5953114,1.85072634 10.5746063,1.86784405 10.533196,1.88496176 C10.5746063,1.91919717 10.6160165,1.97055028 10.6367216,1.95343258 Z M10.7503662,1.82335091 C10.7224181,1.78637151 10.8062625,1.76788181 10.7503662,1.73090241 L10.6665218,1.78637151 C10.6944699,1.80486121 10.7224181,1.86033031 10.7503662,1.82335091 Z M1.43371338,22.1694428 C1.4503791,22.1180896 1.55037342,22.0838542 1.51704198,22.0325011 C1.46704482,22.0496188 1.41704766,22.1009719 1.38371623,22.1352073 C1.40038194,22.152325 1.41704766,22.152325 1.43371338,22.1694428 Z M6.71674633,30.6940601 C6.70008061,30.6598247 6.73341205,30.642707 6.76674349,30.6084716 C6.63341774,30.522883 6.30010335,30.3003529 6.23344048,30.060705 C6.20010904,30.0949404 6.1667776,30.0264696 6.13344616,30.0949404 C6.33343479,30.2832352 6.53342342,30.5400007 6.71674633,30.6940601 Z" id="形状"></path>
                <path d="M31.3635803,21.5776755 L31.3798907,21.5607094 C31.4288218,21.6625058 31.5103737,21.713404 31.5756152,21.7982344 C31.477753,21.8321665 31.4288218,21.7303701 31.3635803,21.7812683 C31.34727,22.0357593 31.6734775,22.1884539 31.8528917,22.2732843 C31.5919256,23.0367573 31.2983388,23.8002304 30.9068898,24.5637034 C30.8090275,24.4110088 30.874269,24.1056196 30.6785445,24.0886535 C30.6296134,24.207416 30.6622341,24.3261785 30.6948549,24.444941 C30.6622341,24.6315677 30.7111652,24.8012284 30.6785445,24.9878551 C30.5317511,25.0217873 30.4012681,25.1405498 30.2544747,25.1405498 C30.2055435,25.2593122 30.270785,25.3950408 30.2381643,25.5307693 C30.1729228,25.5986336 30.0424398,25.5138032 30.009819,25.4289729 L29.9119567,25.5307693 C29.9445775,25.6664979 29.8630256,25.8022264 29.8956464,25.9379549 C29.9608879,26.0227853 30.0424398,26.0058192 30.1076813,26.0567174 C29.3737143,27.2443422 28.3461605,28.4998312 27.1391926,29.6026256 C25.5733964,31.0108092 23.9423586,31.960909 22.360252,32.5886535 C22.3113209,32.5547214 22.3439417,32.4698911 22.2787002,32.452925 C22.1645275,32.4359589 22.0829756,32.6056196 22.0340445,32.69045 C21.8546303,32.7922464 21.6589058,32.8431446 21.4794917,32.8940428 C21.4794917,32.6225857 21.8220096,32.4020268 21.83832,32.1305697 C21.6589058,32.0457394 21.5121124,32.4359589 21.4305605,32.5207893 C21.3326983,32.4020268 21.4468709,32.3002304 21.4631813,32.198434 C22.8006322,31.706418 24.1543935,31.0617074 25.5081549,30.0437434 C25.557086,30.0946416 25.6223275,30.1794719 25.6549483,30.196438 C25.6386379,30.1285737 25.6223275,30.0267773 25.5733964,30.0098112 C25.5897068,29.9758791 25.6060171,30.0098112 25.6223275,30.0267773 C25.6549483,30.0098112 25.5897068,29.9758791 25.6386379,29.941947 C25.9648454,29.704422 26.291053,29.3990328 26.6498813,29.1106096 C28.0688841,27.8381545 29.1127483,26.4299709 29.9608879,25.0217873 C30.5154407,23.8511286 31.0536832,22.714402 31.3635803,21.5776755 L31.3635803,21.5776755 Z M29.9445775,25.3611086 C29.9282671,25.3102104 29.9771983,25.2762783 29.9771983,25.2253801 C29.9445775,25.2593122 29.9119567,25.2932444 29.8630256,25.3271765 C29.8956464,25.3611086 29.9119567,25.3780747 29.9445775,25.3611086 Z M25.6549483,30.3152005 C25.6223275,30.2643022 25.6223275,30.196438 25.5897068,30.1455398 C25.557086,30.1455398 25.5081549,30.1285737 25.4755341,30.1455398 C25.5244652,30.196438 25.5897068,30.2982344 25.6549483,30.3152005 Z M25.6549483,30.4678951 C25.6386379,30.450929 25.6223275,30.3830647 25.6060171,30.3321665 C25.5733964,30.3321665 25.5407756,30.3152005 25.5081549,30.3321665 C25.557086,30.3660987 25.6060171,30.5018272 25.6549483,30.4678951 Z M25.5594975,30.5911111 C25.5770137,30.5486111 25.6470783,30.5273611 25.6295622,30.4848611 C25.5945299,30.5061111 25.5594975,30.4848611 25.5244652,30.4848611 C25.5419814,30.5273611 25.5244652,30.5486111 25.5594975,30.5911111 Z" id="形状"></path>
            </g>
            <text id="未上榜" transform="translate(21.429672, 22.058448) rotate(-16.000000) translate(-21.429672, -22.058448) " font-family="PingFang-SC-Heavy, PingFang SC" font-size="8" font-weight="600">
                <tspan x="9.42967158" y="24.558448">未上榜</tspan>
            </text>
        </g>
    </g>
</svg>