<?xml version="1.0" encoding="UTF-8"?>
<svg width="34px" height="34px" viewBox="0 0 34 34" version="1.1" xmlns="http://www.w3.org/2000/svg" xmlns:xlink="http://www.w3.org/1999/xlink">
    <!-- Generator: Sketch 59 (86127) - https://sketch.com -->
    <title>头像</title>
    <desc>Created with Sketch.</desc>
    <defs>
        <polygon id="path-1" points="0 0 18 0 18 18 0 18"></polygon>
    </defs>
    <g id="舞台" stroke="none" stroke-width="1" fill="none" fill-rule="evenodd">
        <g id="头像" transform="translate(1.000000, 1.000000)">
            <circle id="椭圆形" stroke="#FFFFFF" fill="#FFD73E" cx="16" cy="16" r="16.5"></circle>
            <g id="编组" transform="translate(7.000000, 7.000000)">
                <mask id="mask-2" fill="white">
                    <use xlink:href="#path-1"></use>
                </mask>
                <g id="Clip-2"></g>
                <path d="M17.7905165,12.0642618 L17.3532303,11.6329491 C17.3044384,10.1801413 17.0234245,8.98705839 16.5923525,8.00728896 C17.8554189,4.39880997 16.7419504,1.86113797 16.7419504,1.86113797 C15.566111,1.49832652 13.8176569,2.24470063 12.5515985,2.93819264 C12.9711631,0.624098178 12.0425054,0 12.0425054,0 C11.6362896,1.46307177 9.91016019,0.538192637 8.13086596,0.781182596 C6.70600365,0.975529937 6.02890061,2.48389736 5.79138519,3.17359613 C4.51934287,2.43079212 2.49585887,1.45660097 1.18492109,1.86113797 C1.18492109,1.86113797 0.0537309344,4.44276683 1.36835112,8.10011157 C0.959833815,9.06225363 0.694009882,10.2252138 0.64682901,11.6329491 L0.209312735,12.0642618 C-0.0420117119,12.3121607 -0.0703202347,12.7006322 0.142338912,12.9802157 L0.64682901,13.6433618 C0.64682901,13.6433618 0.696771689,13.7774637 0.817600749,13.9970249 C0.819902255,14.0010413 0.82174346,14.0043882 0.823814815,14.0084046 C0.834401743,14.0271476 0.846369573,14.0476757 0.857877103,14.0677575 C0.868924332,14.0867237 0.879281108,14.1054667 0.891248939,14.1253254 C0.902296167,14.1440684 0.914263998,14.1632577 0.926001678,14.1826701 C0.940731316,14.2065452 0.955460954,14.2304202 0.971341345,14.2556341 C0.983539326,14.2748234 0.996197609,14.2944589 1.00908604,14.3140945 C1.02703779,14.3415396 1.04544984,14.3692079 1.06478249,14.3975456 C1.07813122,14.4171811 1.09147995,14.4370398 1.10574929,14.4573447 C1.1276136,14.4885831 1.15085881,14.5209372 1.17456432,14.5535143 C1.1881432,14.5722573 1.20126179,14.5905541 1.21553112,14.6097434 C1.24476025,14.6487914 1.27560043,14.688955 1.30736121,14.7293418 C1.31840844,14.7431759 1.32853506,14.7567869 1.33958229,14.7708442 C1.42888072,14.8824098 1.52807563,14.9988843 1.63831776,15.1187058 C1.65097604,15.1323168 1.66432478,15.1463741 1.67721321,15.1599851 C1.72002122,15.205727 1.76421013,15.2519152 1.81024025,15.2985496 C1.8286523,15.3170695 1.8477548,15.3355894 1.86662715,15.3543325 C1.90989546,15.3971737 1.95408437,15.4397917 2.00011449,15.4830792 C2.02174865,15.503161 2.04361295,15.5232428 2.06570741,15.5435478 C2.11242798,15.586389 2.1607596,15.6292302 2.21024198,15.6720714 C2.23325704,15.6921532 2.25604195,15.7120119 2.27951731,15.7318706 C2.3331424,15.7771662 2.38860869,15.8222388 2.44545589,15.8675344 C2.46709004,15.8849386 2.4882639,15.9023429 2.51035835,15.9197471 C2.58078444,15.9744143 2.65351202,16.0293046 2.72854112,16.0837486 C2.73889789,16.0911119 2.74833407,16.0986984 2.75869084,16.1060617 C2.84752897,16.1698773 2.93981936,16.2334697 3.03556201,16.2963927 C3.04154592,16.3004091 3.04822029,16.3044254 3.05443435,16.3084418 C3.14074083,16.364894 3.23026941,16.4209 3.32255979,16.4764597 C3.35017786,16.4929714 3.37894669,16.5092599 3.40725521,16.5257717 C3.48021295,16.5686129 3.55455159,16.6110078 3.63119174,16.6529565 C3.66663493,16.6723689 3.70322887,16.6915582 3.73959267,16.7107475 C3.81232025,16.7493492 3.88665889,16.7875046 3.96260859,16.8249907 C4.00265479,16.8448494 4.0431613,16.8644849 4.0841281,16.8841205 C4.1609984,16.920714 4.23994005,16.9566382 4.32026261,16.9923392 C4.36215002,17.0108591 4.40357712,17.0296021 4.44661529,17.0478988 C4.53292176,17.0847155 4.62222019,17.1206396 4.71243922,17.1561175 C4.75133467,17.1715136 4.78930952,17.1871328 4.82912557,17.2023057 C4.94650237,17.2469319 5.06710128,17.2899963 5.19069215,17.3317218 C5.20519164,17.3366307 5.21877052,17.3419859 5.23327001,17.3466716 C5.37320157,17.3935292 5.51750599,17.4381554 5.66549282,17.4809967 C5.70162646,17.4914838 5.73937116,17.5008553 5.77596511,17.5111194 C5.88735799,17.5421346 6.00013178,17.5727036 6.11612768,17.6012644 C6.17090352,17.6148754 6.22752057,17.6273708 6.28321701,17.6403124 C6.38494357,17.6641874 6.48782089,17.68717 6.59299971,17.7090368 C6.65629112,17.7219784 6.72050314,17.7344738 6.7849453,17.746746 C6.88782262,17.7663816 6.99231098,17.7851246 7.09841041,17.8029751 C7.16607468,17.8143548 7.23419926,17.8252882 7.30324443,17.8357754 C7.41256597,17.8525102 7.5246493,17.8676832 7.63742309,17.8821867 C7.70600797,17.8911119 7.77390239,17.9002603 7.84363802,17.908293 C7.96791934,17.9225734 8.09565292,17.9346225 8.22407695,17.9462254 C8.28598746,17.9518036 8.34628692,17.9584976 8.40934818,17.9631833 C8.60198423,17.9783563 8.79807253,17.9910747 8.9999146,18 C9.00014475,18 9.00014475,18 9.0003749,18 C9.20198682,17.9910747 9.39807512,17.9783563 9.59071117,17.9631833 C9.65377243,17.9584976 9.71407189,17.9518036 9.77621255,17.9462254 C9.90440643,17.9346225 10.03214,17.9225734 10.1561912,17.908293 C10.226157,17.9002603 10.2940514,17.8911119 10.3628664,17.8821867 C10.4756402,17.8676832 10.5872632,17.8525102 10.6965848,17.8359985 C10.7658601,17.8252882 10.8337545,17.8143548 10.9016489,17.8029751 C11.0077484,17.7851246 11.1120066,17.7663816 11.2146537,17.746746 C11.2793261,17.7344738 11.3437682,17.7219784 11.4072898,17.7088137 C11.5122385,17.68717 11.6146555,17.6641874 11.7159217,17.6405355 C11.7720785,17.6275939 11.8289257,17.6148754 11.8839317,17.6012644 C11.9996974,17.5727036 12.1117808,17.5423578 12.2229435,17.5113425 C12.2597676,17.5010785 12.2982027,17.4914838 12.3345665,17.4809967 C12.4825534,17.4381554 12.6266276,17.3935292 12.766329,17.3468948 C12.7817491,17.3417627 12.7957883,17.3361845 12.8109783,17.3310524 C12.9338787,17.28955 13.0537871,17.2467088 13.1707036,17.2023057 C13.2107498,17.1871328 13.2487247,17.1712904 13.2880804,17.1558944 C13.3780693,17.1206396 13.4669074,17.0847155 13.5532139,17.0478988 C13.5962521,17.0296021 13.6381395,17.0106359 13.680257,16.9918929 C13.7601193,16.9566382 13.8388308,16.9209372 13.9154709,16.8843436 C13.9566679,16.8647081 13.9974046,16.8448494 14.0376809,16.8247676 C14.1134005,16.7872815 14.1875089,16.7493492 14.2600064,16.7109706 C14.2966003,16.6917813 14.3331943,16.6723689 14.3688676,16.6529565 C14.4457379,16.6110078 14.5200765,16.5686129 14.5930343,16.5255485 C14.6211127,16.5092599 14.6498815,16.4929714 14.6772694,16.4764597 C14.7693296,16.4211231 14.8583979,16.3653403 14.9444742,16.3091112 C14.9511486,16.3048717 14.9580531,16.3006322 14.9644973,16.2963927 C15.06024,16.2334697 15.1523002,16.1698773 15.2411384,16.1062849 C15.2519554,16.0984753 15.2618519,16.0906657 15.2724388,16.0828561 C15.3470076,16.0286352 15.4195051,15.9744143 15.4892407,15.9197471 C15.5117955,15.9023429 15.5329693,15.8849386 15.5550638,15.8670881 C15.6114507,15.8220156 15.666917,15.7771662 15.7200817,15.7318706 C15.7437872,15.7120119 15.7668023,15.6919301 15.7898174,15.6720714 C15.8390696,15.6292302 15.8874012,15.586389 15.9341218,15.5437709 C15.9562162,15.5232428 15.9783107,15.503161 15.9999449,15.4828561 C16.0457448,15.4397917 16.0899337,15.3971737 16.133202,15.3543325 C16.1520744,15.3358126 16.171407,15.3170695 16.1895889,15.2985496 C16.2356191,15.2521383 16.2793477,15.2063964 16.3219255,15.1606545 C16.3350441,15.1465972 16.3490833,15.1323168 16.3619717,15.1184827 C16.4719837,14.9986612 16.5711786,14.8824098 16.6602469,14.7708442 C16.6715243,14.7567869 16.6816509,14.7431759 16.692468,14.7293418 C16.7244589,14.6887319 16.7552991,14.6487914 16.7845282,14.6095203 C16.7985674,14.5907772 16.811686,14.5727036 16.8250347,14.5541837 C16.8489704,14.5211603 16.8724458,14.4885831 16.8945402,14.4568985 C16.9083492,14.4368167 16.921698,14.4174042 16.9350467,14.3979918 C16.9543794,14.3692079 16.9730216,14.3413165 16.9909733,14.3138713 C17.0038617,14.2942358 17.0162899,14.2748234 17.0282577,14.2560803 C17.0445984,14.2304202 17.0597883,14.2060989 17.074518,14.1817776 C17.0857954,14.1628115 17.097533,14.1440684 17.1083501,14.1262179 C17.1207782,14.1047973 17.1322858,14.0849386 17.1437933,14.0648568 C17.1546104,14.0461138 17.1658878,14.0267014 17.1755541,14.009074 C17.1801571,14.0010413 17.1836094,13.9941242 17.1879822,13.9863146 C17.3044384,13.7734474 17.3532303,13.6433618 17.3532303,13.6433618 L17.8574903,12.9802157 C18.0703796,12.7006322 18.0420711,12.3121607 17.7905165,12.0642618" id="Fill-1" fill="#FEFEFE" mask="url(#mask-2)"></path>
            </g>
        </g>
    </g>
</svg>